{
	"asset":{
		"generator":"Khronos glTF Blender I/O v3.6.28",
		"version":"2.0"
	},
	"scene":0,
	"scenes":[
		{
			"name":"Scene",
			"nodes":[
				0
			]
		}
	],
	"nodes":[
		{
			"mesh":0,
			"name":"Mesh_0",
			"scale":[
				1,
				1,
				0.20000000298023224
			]
		}
	],
	"materials":[
		{
			"name":"Material_0",
			"pbrMetallicRoughness":{
				"baseColorTexture":{
					"index":0
				},
				"metallicFactor":0
			}
		}
	],
	"meshes":[
		{
			"name":"Mesh_0",
			"primitives":[
				{
					"attributes":{
						"POSITION":0,
						"NORMAL":1,
						"TEXCOORD_0":2
					},
					"indices":3,
					"material":0
				}
			]
		}
	],
	"textures":[
		{
			"sampler":0,
			"source":0
		}
	],
	"images":[
		{
			"bufferView":4,
			"mimeType":"image/png",
			"name":"Image_0"
		}
	],
	"accessors":[
		{
			"bufferView":0,
			"componentType":5126,
			"count":2730,
			"max":[
				0.5967807769775391,
				1.5282797813415527,
				0.50128173828125
			],
			"min":[
				-2.291234254837036,
				-1.1745014190673828,
				-0.5012847781181335
			],
			"type":"VEC3"
		},
		{
			"bufferView":1,
			"componentType":5126,
			"count":2730,
			"type":"VEC3"
		},
		{
			"bufferView":2,
			"componentType":5126,
			"count":2730,
			"type":"VEC2"
		},
		{
			"bufferView":3,
			"componentType":5123,
			"count":16353,
			"type":"SCALAR"
		}
	],
	"bufferViews":[
		{
			"buffer":0,
			"byteLength":32760,
			"byteOffset":0,
			"target":34962
		},
		{
			"buffer":0,
			"byteLength":32760,
			"byteOffset":32760,
			"target":34962
		},
		{
			"buffer":0,
			"byteLength":21840,
			"byteOffset":65520,
			"target":34962
		},
		{
			"buffer":0,
			"byteLength":32706,
			"byteOffset":87360,
			"target":34963
		},
		{
			"buffer":0,
			"byteLength":58405,
			"byteOffset":120068
		}
	],
	"samplers":[
		{
			"magFilter":9729,
			"minFilter":9987,
			"wrapS":33071,
			"wrapT":33071
		}
	],
	"buffers":[
		{
			"byteLength":178476,
			"uri":"data:application/octet-stream;base64,"
		}
	]
}
